<mxfile host="Electron" agent="Mozilla/5.0 (Windows NT 10.0; Win64; x64) AppleWebKit/537.36 (KHTML, like Gecko) draw.io/27.0.2 Chrome/134.0.6998.205 Electron/35.3.0 Safari/537.36" version="27.0.2">
  <diagram name="Page-1" id="u96x47Jot9IjSdYbSjPC">
    <mxGraphModel dx="2142" dy="660" grid="1" gridSize="10" guides="1" tooltips="1" connect="1" arrows="1" fold="1" page="1" pageScale="1" pageWidth="1100" pageHeight="850" math="0" shadow="0">
      <root>
        <mxCell id="0" />
        <mxCell id="1" parent="0" />
        <mxCell id="JDArnEjV7L_nhNgnEdOl-1" value="DATABASE" style="rounded=0;whiteSpace=wrap;html=1;" parent="1" vertex="1">
          <mxGeometry x="-605" y="310" width="117" height="50" as="geometry" />
        </mxCell>
        <mxCell id="JDArnEjV7L_nhNgnEdOl-2" value="ADMIN" style="rounded=0;whiteSpace=wrap;html=1;" parent="1" vertex="1">
          <mxGeometry x="-589" y="650" width="85" height="30" as="geometry" />
        </mxCell>
        <mxCell id="JDArnEjV7L_nhNgnEdOl-3" value="CLIENT&lt;span style=&quot;color: rgba(0, 0, 0, 0); font-family: monospace; font-size: 0px; text-align: start; text-wrap-mode: nowrap;&quot;&gt;%3CmxGraphModel%3E%3Croot%3E%3CmxCell%20id%3D%220%22%2F%3E%3CmxCell%20id%3D%221%22%20parent%3D%220%22%2F%3E%3CmxCell%20id%3D%222%22%20value%3D%22DB%22%20style%3D%22rounded%3D0%3BwhiteSpace%3Dwrap%3Bhtml%3D1%3B%22%20vertex%3D%221%22%20parent%3D%221%22%3E%3CmxGeometry%20x%3D%22383%22%20y%3D%22240%22%20width%3D%2285%22%20height%3D%2230%22%20as%3D%22geometry%22%2F%3E%3C%2FmxCell%3E%3C%2Froot%3E%3C%2FmxGraphModel%3E&lt;/span&gt;&lt;span style=&quot;color: rgba(0, 0, 0, 0); font-family: monospace; font-size: 0px; text-align: start; text-wrap-mode: nowrap;&quot;&gt;%3CmxGraphModel%3E%3Croot%3E%3CmxCell%20id%3D%220%22%2F%3E%3CmxCell%20id%3D%221%22%20parent%3D%220%22%2F%3E%3CmxCell%20id%3D%222%22%20value%3D%22DB%22%20style%3D%22rounded%3D0%3BwhiteSpace%3Dwrap%3Bhtml%3D1%3B%22%20vertex%3D%221%22%20parent%3D%221%22%3E%3CmxGeometry%20x%3D%22383%22%20y%3D%22240%22%20width%3D%2285%22%20height%3D%2230%22%20as%3D%22geometry%22%2F%3E%3C%2FmxCell%3E%3C%2Froot%3E%3C%2FmxGraphModel%3E&lt;/span&gt;" style="rounded=0;whiteSpace=wrap;html=1;" parent="1" vertex="1">
          <mxGeometry x="-1002" y="190" width="85" height="30" as="geometry" />
        </mxCell>
        <mxCell id="JDArnEjV7L_nhNgnEdOl-4" value="ARTIST" style="rounded=0;whiteSpace=wrap;html=1;" parent="1" vertex="1">
          <mxGeometry x="-192" y="190" width="85" height="30" as="geometry" />
        </mxCell>
        <mxCell id="JDArnEjV7L_nhNgnEdOl-5" value="5" style="swimlane;whiteSpace=wrap;html=1;" parent="1" vertex="1">
          <mxGeometry x="-606.5" y="120" width="120" height="70" as="geometry" />
        </mxCell>
        <mxCell id="JDArnEjV7L_nhNgnEdOl-7" style="edgeStyle=orthogonalEdgeStyle;rounded=0;orthogonalLoop=1;jettySize=auto;html=1;exitX=1;exitY=1;exitDx=0;exitDy=0;entryX=1;entryY=1;entryDx=0;entryDy=0;" parent="JDArnEjV7L_nhNgnEdOl-5" source="JDArnEjV7L_nhNgnEdOl-6" target="JDArnEjV7L_nhNgnEdOl-5" edge="1">
          <mxGeometry relative="1" as="geometry" />
        </mxCell>
        <mxCell id="JDArnEjV7L_nhNgnEdOl-6" value="COMMISSION HISTORY" style="whiteSpace=wrap;html=1;" parent="JDArnEjV7L_nhNgnEdOl-5" vertex="1">
          <mxGeometry y="20" width="120" height="50" as="geometry" />
        </mxCell>
        <mxCell id="JDArnEjV7L_nhNgnEdOl-9" value="1" style="swimlane;whiteSpace=wrap;html=1;" parent="1" vertex="1">
          <mxGeometry x="-852" y="220" width="100" height="60" as="geometry" />
        </mxCell>
        <mxCell id="JDArnEjV7L_nhNgnEdOl-10" style="edgeStyle=orthogonalEdgeStyle;rounded=0;orthogonalLoop=1;jettySize=auto;html=1;exitX=1;exitY=1;exitDx=0;exitDy=0;entryX=1;entryY=1;entryDx=0;entryDy=0;" parent="JDArnEjV7L_nhNgnEdOl-9" source="JDArnEjV7L_nhNgnEdOl-11" target="JDArnEjV7L_nhNgnEdOl-9" edge="1">
          <mxGeometry relative="1" as="geometry" />
        </mxCell>
        <mxCell id="JDArnEjV7L_nhNgnEdOl-11" value="BROWSE/PAY" style="whiteSpace=wrap;html=1;" parent="JDArnEjV7L_nhNgnEdOl-9" vertex="1">
          <mxGeometry y="20" width="100" height="40" as="geometry" />
        </mxCell>
        <mxCell id="JDArnEjV7L_nhNgnEdOl-12" value="2" style="swimlane;whiteSpace=wrap;html=1;" parent="1" vertex="1">
          <mxGeometry x="-852" y="320" width="100" height="60" as="geometry" />
        </mxCell>
        <mxCell id="JDArnEjV7L_nhNgnEdOl-13" style="edgeStyle=orthogonalEdgeStyle;rounded=0;orthogonalLoop=1;jettySize=auto;html=1;exitX=1;exitY=1;exitDx=0;exitDy=0;entryX=1;entryY=1;entryDx=0;entryDy=0;" parent="JDArnEjV7L_nhNgnEdOl-12" source="JDArnEjV7L_nhNgnEdOl-14" target="JDArnEjV7L_nhNgnEdOl-12" edge="1">
          <mxGeometry relative="1" as="geometry" />
        </mxCell>
        <mxCell id="JDArnEjV7L_nhNgnEdOl-14" value="COMMISSION&lt;span style=&quot;color: rgba(0, 0, 0, 0); font-family: monospace; font-size: 0px; text-align: start; text-wrap-mode: nowrap;&quot;&gt;%3CmxGraphModel%3E%3Croot%3E%3CmxCell%20id%3D%220%22%2F%3E%3CmxCell%20id%3D%221%22%20parent%3D%220%22%2F%3E%3CmxCell%20id%3D%222%22%20value%3D%225%22%20style%3D%22swimlane%3BwhiteSpace%3Dwrap%3Bhtml%3D1%3B%22%20vertex%3D%221%22%20parent%3D%221%22%3E%3CmxGeometry%20x%3D%22220%22%20y%3D%22160%22%20width%3D%22100%22%20height%3D%2260%22%20as%3D%22geometry%22%2F%3E%3C%2FmxCell%3E%3CmxCell%20id%3D%223%22%20style%3D%22edgeStyle%3DorthogonalEdgeStyle%3Brounded%3D0%3BorthogonalLoop%3D1%3BjettySize%3Dauto%3Bhtml%3D1%3BexitX%3D1%3BexitY%3D1%3BexitDx%3D0%3BexitDy%3D0%3BentryX%3D1%3BentryY%3D1%3BentryDx%3D0%3BentryDy%3D0%3B%22%20edge%3D%221%22%20parent%3D%222%22%20source%3D%224%22%20target%3D%222%22%3E%3CmxGeometry%20relative%3D%221%22%20as%3D%22geometry%22%2F%3E%3C%2FmxCell%3E%3CmxCell%20id%3D%224%22%20value%3D%22COMMISION%20HISTORY%22%20style%3D%22whiteSpace%3Dwrap%3Bhtml%3D1%3B%22%20vertex%3D%221%22%20parent%3D%222%22%3E%3CmxGeometry%20y%3D%2220%22%20width%3D%22100%22%20height%3D%2240%22%20as%3D%22geometry%22%2F%3E%3C%2FmxCell%3E%3C%2Froot%3E%3C%2FmxGraphModel%3E&lt;/span&gt;" style="whiteSpace=wrap;html=1;" parent="JDArnEjV7L_nhNgnEdOl-12" vertex="1">
          <mxGeometry y="20" width="100" height="40" as="geometry" />
        </mxCell>
        <mxCell id="JDArnEjV7L_nhNgnEdOl-16" value="4" style="swimlane;whiteSpace=wrap;html=1;" parent="1" vertex="1">
          <mxGeometry x="-852" y="420" width="100" height="60" as="geometry" />
        </mxCell>
        <mxCell id="JDArnEjV7L_nhNgnEdOl-17" style="edgeStyle=orthogonalEdgeStyle;rounded=0;orthogonalLoop=1;jettySize=auto;html=1;exitX=1;exitY=1;exitDx=0;exitDy=0;entryX=1;entryY=1;entryDx=0;entryDy=0;" parent="JDArnEjV7L_nhNgnEdOl-16" source="JDArnEjV7L_nhNgnEdOl-18" target="JDArnEjV7L_nhNgnEdOl-16" edge="1">
          <mxGeometry relative="1" as="geometry" />
        </mxCell>
        <mxCell id="JDArnEjV7L_nhNgnEdOl-18" value="TRACK COMMISSION" style="whiteSpace=wrap;html=1;" parent="JDArnEjV7L_nhNgnEdOl-16" vertex="1">
          <mxGeometry y="20" width="100" height="40" as="geometry" />
        </mxCell>
        <mxCell id="JDArnEjV7L_nhNgnEdOl-19" value="3" style="swimlane;whiteSpace=wrap;html=1;startSize=23;" parent="1" vertex="1">
          <mxGeometry x="-852" y="520" width="100" height="60" as="geometry" />
        </mxCell>
        <mxCell id="JDArnEjV7L_nhNgnEdOl-20" style="edgeStyle=orthogonalEdgeStyle;rounded=0;orthogonalLoop=1;jettySize=auto;html=1;exitX=1;exitY=1;exitDx=0;exitDy=0;entryX=1;entryY=1;entryDx=0;entryDy=0;" parent="JDArnEjV7L_nhNgnEdOl-19" source="JDArnEjV7L_nhNgnEdOl-21" target="JDArnEjV7L_nhNgnEdOl-19" edge="1">
          <mxGeometry relative="1" as="geometry" />
        </mxCell>
        <mxCell id="JDArnEjV7L_nhNgnEdOl-21" value="CHAT" style="whiteSpace=wrap;html=1;" parent="JDArnEjV7L_nhNgnEdOl-19" vertex="1">
          <mxGeometry y="20" width="100" height="40" as="geometry" />
        </mxCell>
        <mxCell id="JDArnEjV7L_nhNgnEdOl-22" value="" style="swimlane;whiteSpace=wrap;html=1;" parent="1" vertex="1">
          <mxGeometry x="-352" y="220" width="100" height="60" as="geometry" />
        </mxCell>
        <mxCell id="JDArnEjV7L_nhNgnEdOl-23" style="edgeStyle=orthogonalEdgeStyle;rounded=0;orthogonalLoop=1;jettySize=auto;html=1;exitX=1;exitY=1;exitDx=0;exitDy=0;entryX=1;entryY=1;entryDx=0;entryDy=0;" parent="JDArnEjV7L_nhNgnEdOl-22" source="JDArnEjV7L_nhNgnEdOl-24" target="JDArnEjV7L_nhNgnEdOl-22" edge="1">
          <mxGeometry relative="1" as="geometry" />
        </mxCell>
        <mxCell id="JDArnEjV7L_nhNgnEdOl-24" value="MANAGE COMMISSION" style="whiteSpace=wrap;html=1;" parent="JDArnEjV7L_nhNgnEdOl-22" vertex="1">
          <mxGeometry y="20" width="100" height="40" as="geometry" />
        </mxCell>
        <mxCell id="JDArnEjV7L_nhNgnEdOl-63" value="" style="endArrow=classic;html=1;rounded=0;" parent="JDArnEjV7L_nhNgnEdOl-22" source="JDArnEjV7L_nhNgnEdOl-4" edge="1">
          <mxGeometry width="50" height="50" relative="1" as="geometry">
            <mxPoint x="50" y="80" as="sourcePoint" />
            <mxPoint x="100" y="30" as="targetPoint" />
          </mxGeometry>
        </mxCell>
        <mxCell id="JDArnEjV7L_nhNgnEdOl-25" value="" style="swimlane;whiteSpace=wrap;html=1;" parent="1" vertex="1">
          <mxGeometry x="-352" y="320" width="100" height="60" as="geometry" />
        </mxCell>
        <mxCell id="JDArnEjV7L_nhNgnEdOl-26" style="edgeStyle=orthogonalEdgeStyle;rounded=0;orthogonalLoop=1;jettySize=auto;html=1;exitX=1;exitY=1;exitDx=0;exitDy=0;entryX=1;entryY=1;entryDx=0;entryDy=0;" parent="JDArnEjV7L_nhNgnEdOl-25" source="JDArnEjV7L_nhNgnEdOl-27" target="JDArnEjV7L_nhNgnEdOl-25" edge="1">
          <mxGeometry relative="1" as="geometry" />
        </mxCell>
        <mxCell id="JDArnEjV7L_nhNgnEdOl-27" value="SALES/INCOME REPORT" style="whiteSpace=wrap;html=1;" parent="JDArnEjV7L_nhNgnEdOl-25" vertex="1">
          <mxGeometry y="20" width="100" height="40" as="geometry" />
        </mxCell>
        <mxCell id="JDArnEjV7L_nhNgnEdOl-28" value="" style="swimlane;whiteSpace=wrap;html=1;" parent="1" vertex="1">
          <mxGeometry x="-352" y="420" width="100" height="60" as="geometry" />
        </mxCell>
        <mxCell id="JDArnEjV7L_nhNgnEdOl-29" style="edgeStyle=orthogonalEdgeStyle;rounded=0;orthogonalLoop=1;jettySize=auto;html=1;exitX=1;exitY=1;exitDx=0;exitDy=0;entryX=1;entryY=1;entryDx=0;entryDy=0;" parent="JDArnEjV7L_nhNgnEdOl-28" source="JDArnEjV7L_nhNgnEdOl-30" target="JDArnEjV7L_nhNgnEdOl-28" edge="1">
          <mxGeometry relative="1" as="geometry" />
        </mxCell>
        <mxCell id="JDArnEjV7L_nhNgnEdOl-30" value="FEEDBACK" style="whiteSpace=wrap;html=1;" parent="JDArnEjV7L_nhNgnEdOl-28" vertex="1">
          <mxGeometry y="20" width="100" height="40" as="geometry" />
        </mxCell>
        <mxCell id="JDArnEjV7L_nhNgnEdOl-31" value="" style="swimlane;whiteSpace=wrap;html=1;" parent="1" vertex="1">
          <mxGeometry x="-352" y="520" width="100" height="60" as="geometry" />
        </mxCell>
        <mxCell id="JDArnEjV7L_nhNgnEdOl-32" style="edgeStyle=orthogonalEdgeStyle;rounded=0;orthogonalLoop=1;jettySize=auto;html=1;exitX=1;exitY=1;exitDx=0;exitDy=0;entryX=1;entryY=1;entryDx=0;entryDy=0;" parent="JDArnEjV7L_nhNgnEdOl-31" source="JDArnEjV7L_nhNgnEdOl-33" target="JDArnEjV7L_nhNgnEdOl-31" edge="1">
          <mxGeometry relative="1" as="geometry" />
        </mxCell>
        <mxCell id="JDArnEjV7L_nhNgnEdOl-33" value="PORTFOLIO" style="whiteSpace=wrap;html=1;" parent="JDArnEjV7L_nhNgnEdOl-31" vertex="1">
          <mxGeometry y="20" width="100" height="40" as="geometry" />
        </mxCell>
        <mxCell id="JDArnEjV7L_nhNgnEdOl-34" value="" style="swimlane;whiteSpace=wrap;html=1;" parent="1" vertex="1">
          <mxGeometry x="-596.5" y="520" width="100" height="60" as="geometry" />
        </mxCell>
        <mxCell id="JDArnEjV7L_nhNgnEdOl-35" style="edgeStyle=orthogonalEdgeStyle;rounded=0;orthogonalLoop=1;jettySize=auto;html=1;exitX=1;exitY=1;exitDx=0;exitDy=0;entryX=1;entryY=1;entryDx=0;entryDy=0;" parent="JDArnEjV7L_nhNgnEdOl-34" source="JDArnEjV7L_nhNgnEdOl-36" target="JDArnEjV7L_nhNgnEdOl-34" edge="1">
          <mxGeometry relative="1" as="geometry" />
        </mxCell>
        <mxCell id="JDArnEjV7L_nhNgnEdOl-36" value="MONITOR ARTISTS" style="whiteSpace=wrap;html=1;" parent="JDArnEjV7L_nhNgnEdOl-34" vertex="1">
          <mxGeometry y="20" width="100" height="40" as="geometry" />
        </mxCell>
        <mxCell id="JDArnEjV7L_nhNgnEdOl-40" value="" style="endArrow=classic;html=1;rounded=0;exitX=0.5;exitY=0;exitDx=0;exitDy=0;" parent="1" source="JDArnEjV7L_nhNgnEdOl-1" target="JDArnEjV7L_nhNgnEdOl-6" edge="1">
          <mxGeometry width="50" height="50" relative="1" as="geometry">
            <mxPoint x="-592" y="430" as="sourcePoint" />
            <mxPoint x="-542" y="380" as="targetPoint" />
          </mxGeometry>
        </mxCell>
        <mxCell id="JDArnEjV7L_nhNgnEdOl-41" value="" style="endArrow=classic;html=1;rounded=0;entryX=0.5;entryY=0;entryDx=0;entryDy=0;exitX=0.013;exitY=0.152;exitDx=0;exitDy=0;exitPerimeter=0;" parent="1" source="JDArnEjV7L_nhNgnEdOl-5" target="JDArnEjV7L_nhNgnEdOl-3" edge="1">
          <mxGeometry width="50" height="50" relative="1" as="geometry">
            <mxPoint x="-612" y="130" as="sourcePoint" />
            <mxPoint x="-582" y="10" as="targetPoint" />
            <Array as="points">
              <mxPoint x="-959" y="130" />
            </Array>
          </mxGeometry>
        </mxCell>
        <mxCell id="JDArnEjV7L_nhNgnEdOl-42" value="" style="endArrow=classic;html=1;rounded=0;exitX=0;exitY=0.25;exitDx=0;exitDy=0;entryX=1;entryY=0.25;entryDx=0;entryDy=0;" parent="1" source="JDArnEjV7L_nhNgnEdOl-1" target="JDArnEjV7L_nhNgnEdOl-11" edge="1">
          <mxGeometry width="50" height="50" relative="1" as="geometry">
            <mxPoint x="-582" y="410" as="sourcePoint" />
            <mxPoint x="-582" y="290" as="targetPoint" />
          </mxGeometry>
        </mxCell>
        <mxCell id="JDArnEjV7L_nhNgnEdOl-43" value="" style="endArrow=classic;html=1;rounded=0;exitX=1;exitY=0.5;exitDx=0;exitDy=0;entryX=0;entryY=0.75;entryDx=0;entryDy=0;" parent="1" source="JDArnEjV7L_nhNgnEdOl-14" target="JDArnEjV7L_nhNgnEdOl-1" edge="1">
          <mxGeometry width="50" height="50" relative="1" as="geometry">
            <mxPoint x="-582" y="520" as="sourcePoint" />
            <mxPoint x="-582" y="400" as="targetPoint" />
          </mxGeometry>
        </mxCell>
        <mxCell id="JDArnEjV7L_nhNgnEdOl-44" value="" style="endArrow=classic;html=1;rounded=0;exitX=0;exitY=1;exitDx=0;exitDy=0;entryX=1;entryY=0.5;entryDx=0;entryDy=0;" parent="1" source="JDArnEjV7L_nhNgnEdOl-1" target="JDArnEjV7L_nhNgnEdOl-18" edge="1">
          <mxGeometry width="50" height="50" relative="1" as="geometry">
            <mxPoint x="-572" y="520" as="sourcePoint" />
            <mxPoint x="-572" y="400" as="targetPoint" />
          </mxGeometry>
        </mxCell>
        <mxCell id="JDArnEjV7L_nhNgnEdOl-45" value="" style="endArrow=classic;html=1;rounded=0;exitX=1;exitY=0.5;exitDx=0;exitDy=0;entryX=0.1;entryY=0.929;entryDx=0;entryDy=0;entryPerimeter=0;" parent="1" source="JDArnEjV7L_nhNgnEdOl-19" target="JDArnEjV7L_nhNgnEdOl-1" edge="1">
          <mxGeometry width="50" height="50" relative="1" as="geometry">
            <mxPoint x="-702" y="610" as="sourcePoint" />
            <mxPoint x="-702" y="490" as="targetPoint" />
            <Array as="points">
              <mxPoint x="-672" y="500" />
            </Array>
          </mxGeometry>
        </mxCell>
        <mxCell id="JDArnEjV7L_nhNgnEdOl-46" value="" style="endArrow=classic;html=1;rounded=0;exitX=0;exitY=0.25;exitDx=0;exitDy=0;entryX=1;entryY=0.25;entryDx=0;entryDy=0;" parent="1" source="JDArnEjV7L_nhNgnEdOl-24" target="JDArnEjV7L_nhNgnEdOl-1" edge="1">
          <mxGeometry width="50" height="50" relative="1" as="geometry">
            <mxPoint x="-392" y="390" as="sourcePoint" />
            <mxPoint x="-392" y="270" as="targetPoint" />
          </mxGeometry>
        </mxCell>
        <mxCell id="JDArnEjV7L_nhNgnEdOl-47" value="" style="endArrow=classic;html=1;rounded=0;exitX=1;exitY=0.5;exitDx=0;exitDy=0;entryX=0;entryY=0.25;entryDx=0;entryDy=0;" parent="1" source="JDArnEjV7L_nhNgnEdOl-1" target="JDArnEjV7L_nhNgnEdOl-27" edge="1">
          <mxGeometry width="50" height="50" relative="1" as="geometry">
            <mxPoint x="-422" y="450" as="sourcePoint" />
            <mxPoint x="-422" y="330" as="targetPoint" />
          </mxGeometry>
        </mxCell>
        <mxCell id="JDArnEjV7L_nhNgnEdOl-48" value="" style="endArrow=classic;html=1;rounded=0;exitX=1;exitY=0.75;exitDx=0;exitDy=0;entryX=0;entryY=0.5;entryDx=0;entryDy=0;" parent="1" source="JDArnEjV7L_nhNgnEdOl-1" target="JDArnEjV7L_nhNgnEdOl-30" edge="1">
          <mxGeometry width="50" height="50" relative="1" as="geometry">
            <mxPoint x="-432" y="500" as="sourcePoint" />
            <mxPoint x="-432" y="380" as="targetPoint" />
          </mxGeometry>
        </mxCell>
        <mxCell id="JDArnEjV7L_nhNgnEdOl-51" value="" style="endArrow=classic;html=1;rounded=0;entryX=0.814;entryY=0.947;entryDx=0;entryDy=0;entryPerimeter=0;exitX=0;exitY=0.25;exitDx=0;exitDy=0;" parent="1" source="JDArnEjV7L_nhNgnEdOl-33" target="JDArnEjV7L_nhNgnEdOl-1" edge="1">
          <mxGeometry width="50" height="50" relative="1" as="geometry">
            <mxPoint x="-592" y="430" as="sourcePoint" />
            <mxPoint x="-542" y="380" as="targetPoint" />
            <Array as="points">
              <mxPoint x="-432" y="500" />
            </Array>
          </mxGeometry>
        </mxCell>
        <mxCell id="JDArnEjV7L_nhNgnEdOl-52" value="" style="endArrow=classic;startArrow=classic;html=1;rounded=0;" parent="1" edge="1">
          <mxGeometry width="50" height="50" relative="1" as="geometry">
            <mxPoint x="-547.13" y="520" as="sourcePoint" />
            <mxPoint x="-547.13" y="360" as="targetPoint" />
          </mxGeometry>
        </mxCell>
        <mxCell id="JDArnEjV7L_nhNgnEdOl-54" value="" style="endArrow=classic;html=1;rounded=0;exitX=0.591;exitY=1.044;exitDx=0;exitDy=0;exitPerimeter=0;entryX=1;entryY=0.5;entryDx=0;entryDy=0;" parent="1" source="JDArnEjV7L_nhNgnEdOl-4" target="JDArnEjV7L_nhNgnEdOl-33" edge="1">
          <mxGeometry width="50" height="50" relative="1" as="geometry">
            <mxPoint x="-592" y="430" as="sourcePoint" />
            <mxPoint x="-242" y="560" as="targetPoint" />
            <Array as="points">
              <mxPoint x="-142" y="560" />
            </Array>
          </mxGeometry>
        </mxCell>
        <mxCell id="JDArnEjV7L_nhNgnEdOl-55" value="" style="endArrow=classic;startArrow=classic;html=1;rounded=0;" parent="1" edge="1">
          <mxGeometry width="50" height="50" relative="1" as="geometry">
            <mxPoint x="-812" y="580" as="sourcePoint" />
            <mxPoint x="-122" y="220" as="targetPoint" />
            <Array as="points">
              <mxPoint x="-812" y="700" />
              <mxPoint x="-122" y="700" />
            </Array>
          </mxGeometry>
        </mxCell>
        <mxCell id="JDArnEjV7L_nhNgnEdOl-56" value="" style="endArrow=classic;html=1;rounded=0;entryX=0.25;entryY=1;entryDx=0;entryDy=0;exitX=1;exitY=0.25;exitDx=0;exitDy=0;" parent="1" source="JDArnEjV7L_nhNgnEdOl-30" edge="1">
          <mxGeometry width="50" height="50" relative="1" as="geometry">
            <mxPoint x="-242" y="450" as="sourcePoint" />
            <mxPoint x="-160.74999999999955" y="220" as="targetPoint" />
            <Array as="points">
              <mxPoint x="-162" y="450" />
            </Array>
          </mxGeometry>
        </mxCell>
        <mxCell id="JDArnEjV7L_nhNgnEdOl-57" value="" style="endArrow=classic;html=1;rounded=0;exitX=0.25;exitY=1;exitDx=0;exitDy=0;startArrow=classic;startFill=1;" parent="1" source="JDArnEjV7L_nhNgnEdOl-3" edge="1">
          <mxGeometry width="50" height="50" relative="1" as="geometry">
            <mxPoint x="-902" y="600" as="sourcePoint" />
            <mxPoint x="-852" y="550" as="targetPoint" />
            <Array as="points">
              <mxPoint x="-981" y="550" />
            </Array>
          </mxGeometry>
        </mxCell>
        <mxCell id="JDArnEjV7L_nhNgnEdOl-58" value="" style="endArrow=none;html=1;rounded=0;exitX=0.5;exitY=1;exitDx=0;exitDy=0;entryX=0;entryY=0.5;entryDx=0;entryDy=0;startArrow=classic;startFill=1;endFill=0;" parent="1" source="JDArnEjV7L_nhNgnEdOl-3" target="JDArnEjV7L_nhNgnEdOl-18" edge="1">
          <mxGeometry width="50" height="50" relative="1" as="geometry">
            <mxPoint x="-592" y="430" as="sourcePoint" />
            <mxPoint x="-862" y="460" as="targetPoint" />
            <Array as="points">
              <mxPoint x="-959" y="460" />
            </Array>
          </mxGeometry>
        </mxCell>
        <mxCell id="JDArnEjV7L_nhNgnEdOl-59" value="" style="endArrow=classic;html=1;rounded=0;exitX=0.75;exitY=1;exitDx=0;exitDy=0;" parent="1" source="JDArnEjV7L_nhNgnEdOl-3" edge="1">
          <mxGeometry width="50" height="50" relative="1" as="geometry">
            <mxPoint x="-902" y="400" as="sourcePoint" />
            <mxPoint x="-852" y="350" as="targetPoint" />
            <Array as="points">
              <mxPoint x="-938" y="350" />
            </Array>
          </mxGeometry>
        </mxCell>
        <mxCell id="JDArnEjV7L_nhNgnEdOl-60" value="" style="endArrow=classic;html=1;rounded=0;exitX=0;exitY=0.5;exitDx=0;exitDy=0;" parent="1" source="JDArnEjV7L_nhNgnEdOl-11" edge="1">
          <mxGeometry width="50" height="50" relative="1" as="geometry">
            <mxPoint x="-967" y="270" as="sourcePoint" />
            <mxPoint x="-917" y="220" as="targetPoint" />
          </mxGeometry>
        </mxCell>
        <mxCell id="JDArnEjV7L_nhNgnEdOl-62" value="" style="endArrow=classic;html=1;rounded=0;exitX=1;exitY=0.5;exitDx=0;exitDy=0;" parent="1" source="JDArnEjV7L_nhNgnEdOl-25" edge="1">
          <mxGeometry width="50" height="50" relative="1" as="geometry">
            <mxPoint x="-232" y="270" as="sourcePoint" />
            <mxPoint x="-182" y="220" as="targetPoint" />
            <Array as="points">
              <mxPoint x="-182" y="350" />
            </Array>
          </mxGeometry>
        </mxCell>
        <mxCell id="JDArnEjV7L_nhNgnEdOl-65" value="" style="endArrow=classic;startArrow=classic;html=1;rounded=0;startFill=1;endFill=1;entryX=0.5;entryY=1;entryDx=0;entryDy=0;exitX=0.5;exitY=0;exitDx=0;exitDy=0;" parent="1" source="JDArnEjV7L_nhNgnEdOl-2" target="JDArnEjV7L_nhNgnEdOl-36" edge="1">
          <mxGeometry width="50" height="50" relative="1" as="geometry">
            <mxPoint x="-562.7647058823532" y="650" as="sourcePoint" />
            <mxPoint x="-592" y="580" as="targetPoint" />
          </mxGeometry>
        </mxCell>
        <mxCell id="JDArnEjV7L_nhNgnEdOl-67" value="&lt;font size=&quot;1&quot;&gt;COMMISSION DETAILS&lt;/font&gt;" style="text;html=1;align=center;verticalAlign=middle;whiteSpace=wrap;rounded=0;" parent="1" vertex="1">
          <mxGeometry x="-620" y="220" width="60" height="30" as="geometry" />
        </mxCell>
        <mxCell id="JDArnEjV7L_nhNgnEdOl-68" value="&lt;font size=&quot;1&quot;&gt;COMMISSION DETAILS&lt;/font&gt;" style="text;html=1;align=center;verticalAlign=middle;whiteSpace=wrap;rounded=0;rotation=-30;" parent="1" vertex="1">
          <mxGeometry x="-462" y="260" width="60" height="30" as="geometry" />
        </mxCell>
        <mxCell id="JDArnEjV7L_nhNgnEdOl-69" value="&lt;font size=&quot;1&quot;&gt;REPORT&lt;/font&gt;" style="text;html=1;align=center;verticalAlign=middle;whiteSpace=wrap;rounded=0;" parent="1" vertex="1">
          <mxGeometry x="-242" y="320" width="60" height="30" as="geometry" />
        </mxCell>
        <mxCell id="JDArnEjV7L_nhNgnEdOl-70" value="&lt;font size=&quot;1&quot;&gt;COMMISSION HISTORY&lt;/font&gt;" style="text;html=1;align=center;verticalAlign=middle;whiteSpace=wrap;rounded=0;rotation=5;" parent="1" vertex="1">
          <mxGeometry x="-422" y="310" width="60" height="30" as="geometry" />
        </mxCell>
        <mxCell id="JDArnEjV7L_nhNgnEdOl-71" value="&lt;font size=&quot;1&quot;&gt;CLIENT FEEDBACK&lt;/font&gt;" style="text;html=1;align=center;verticalAlign=middle;whiteSpace=wrap;rounded=0;rotation=40;" parent="1" vertex="1">
          <mxGeometry x="-422" y="390" width="60" height="30" as="geometry" />
        </mxCell>
        <mxCell id="JDArnEjV7L_nhNgnEdOl-72" value="&lt;font size=&quot;1&quot;&gt;POST DETAILS&lt;/font&gt;" style="text;html=1;align=center;verticalAlign=middle;whiteSpace=wrap;rounded=0;rotation=35;" parent="1" vertex="1">
          <mxGeometry x="-422" y="490" width="60" height="30" as="geometry" />
        </mxCell>
        <mxCell id="JDArnEjV7L_nhNgnEdOl-73" value="&lt;font size=&quot;1&quot;&gt;POST DETAILS&lt;/font&gt;" style="text;html=1;align=center;verticalAlign=middle;whiteSpace=wrap;rounded=0;" parent="1" vertex="1">
          <mxGeometry x="-242" y="530" width="60" height="30" as="geometry" />
        </mxCell>
        <mxCell id="JDArnEjV7L_nhNgnEdOl-74" value="&lt;font size=&quot;1&quot;&gt;FEEDBACK COMMENTS&lt;/font&gt;" style="text;html=1;align=center;verticalAlign=middle;whiteSpace=wrap;rounded=0;" parent="1" vertex="1">
          <mxGeometry x="-242" y="420" width="60" height="30" as="geometry" />
        </mxCell>
        <mxCell id="JDArnEjV7L_nhNgnEdOl-75" value="&lt;font style=&quot;font-size: 8px;&quot;&gt;COMMISSION DETAILS&lt;/font&gt;" style="text;html=1;align=center;verticalAlign=middle;whiteSpace=wrap;rounded=0;" parent="1" vertex="1">
          <mxGeometry x="-252" y="200" width="60" height="30" as="geometry" />
        </mxCell>
        <mxCell id="JDArnEjV7L_nhNgnEdOl-76" value="&lt;font size=&quot;1&quot;&gt;MESSAGE&lt;/font&gt;" style="text;html=1;align=center;verticalAlign=middle;whiteSpace=wrap;rounded=0;" parent="1" vertex="1">
          <mxGeometry x="-576.5" y="700" width="60" height="30" as="geometry" />
        </mxCell>
        <mxCell id="JDArnEjV7L_nhNgnEdOl-78" value="&lt;font style=&quot;font-size: 8px;&quot;&gt;STATUS UPDATE&lt;/font&gt;" style="text;html=1;align=center;verticalAlign=middle;whiteSpace=wrap;rounded=0;" parent="1" vertex="1">
          <mxGeometry x="-610" y="435" width="60" height="30" as="geometry" />
        </mxCell>
        <mxCell id="JDArnEjV7L_nhNgnEdOl-79" value="&lt;font size=&quot;1&quot;&gt;COMMISSION DETAILS&lt;/font&gt;" style="text;html=1;align=center;verticalAlign=middle;whiteSpace=wrap;rounded=0;rotation=-30;" parent="1" vertex="1">
          <mxGeometry x="-739" y="490" width="60" height="30" as="geometry" />
        </mxCell>
        <mxCell id="JDArnEjV7L_nhNgnEdOl-80" value="&lt;font size=&quot;1&quot;&gt;COMMISSION DETAILS&lt;/font&gt;" style="text;html=1;align=center;verticalAlign=middle;whiteSpace=wrap;rounded=0;rotation=-35;" parent="1" vertex="1">
          <mxGeometry x="-732" y="390" width="60" height="30" as="geometry" />
        </mxCell>
        <mxCell id="JDArnEjV7L_nhNgnEdOl-81" value="&lt;font size=&quot;1&quot;&gt;COMMISSION DETAILS&lt;/font&gt;" style="text;html=1;align=center;verticalAlign=middle;whiteSpace=wrap;rounded=0;rotation=-5;" parent="1" vertex="1">
          <mxGeometry x="-739" y="320" width="90" height="30" as="geometry" />
        </mxCell>
        <mxCell id="JDArnEjV7L_nhNgnEdOl-82" value="&lt;font size=&quot;1&quot;&gt;COMMISSION DETAILS/STATUS&lt;/font&gt;" style="text;html=1;align=center;verticalAlign=middle;whiteSpace=wrap;rounded=0;" parent="1" vertex="1">
          <mxGeometry x="-799" y="140" width="67" height="30" as="geometry" />
        </mxCell>
        <mxCell id="6mSzcyeXDJjera6GISNx-6" value="&lt;font size=&quot;1&quot;&gt;MESSAGE&lt;/font&gt;" style="text;html=1;align=center;verticalAlign=middle;whiteSpace=wrap;rounded=0;" parent="1" vertex="1">
          <mxGeometry x="-970" y="550" width="60" height="30" as="geometry" />
        </mxCell>
        <mxCell id="6mSzcyeXDJjera6GISNx-7" value="&lt;font size=&quot;1&quot;&gt;COMMISSION DETAILS&lt;/font&gt;" style="text;html=1;align=center;verticalAlign=middle;whiteSpace=wrap;rounded=0;rotation=0;" parent="1" vertex="1">
          <mxGeometry x="-930.0017921260646" y="425.00457375486627" width="60" height="30" as="geometry" />
        </mxCell>
        <mxCell id="6mSzcyeXDJjera6GISNx-8" value="&lt;font size=&quot;1&quot;&gt;COMMISSION&lt;/font&gt;&lt;div&gt;&lt;font size=&quot;1&quot;&gt;DETAILS&lt;/font&gt;&lt;/div&gt;" style="text;html=1;align=center;verticalAlign=middle;whiteSpace=wrap;rounded=0;rotation=0;" parent="1" vertex="1">
          <mxGeometry x="-941" y="320" width="82" height="30" as="geometry" />
        </mxCell>
        <mxCell id="6mSzcyeXDJjera6GISNx-9" value="&lt;span style=&quot;font-size: 11px;&quot;&gt;DISPLAYS ART&lt;/span&gt;" style="text;html=1;align=center;verticalAlign=middle;whiteSpace=wrap;rounded=0;rotation=25;" parent="1" vertex="1">
          <mxGeometry x="-709" y="250" width="60" height="30" as="geometry" />
        </mxCell>
        <mxCell id="6mSzcyeXDJjera6GISNx-10" value="&lt;font style=&quot;font-size: 10px;&quot;&gt;VIEW ART&lt;/font&gt;" style="text;html=1;align=center;verticalAlign=middle;whiteSpace=wrap;rounded=0;rotation=30;" parent="1" vertex="1">
          <mxGeometry x="-919.0014924627901" y="240.00316465777072" width="60" height="30" as="geometry" />
        </mxCell>
        <mxCell id="6mSzcyeXDJjera6GISNx-11" value="&lt;font style=&quot;font-size: 10px;&quot;&gt;VIEW SALES AND ACTIVITY&lt;/font&gt;" style="text;html=1;align=center;verticalAlign=middle;whiteSpace=wrap;rounded=0;" parent="1" vertex="1">
          <mxGeometry x="-540" y="600" width="60" height="30" as="geometry" />
        </mxCell>
      </root>
    </mxGraphModel>
  </diagram>
</mxfile>
